# xmcd
#
# Track frame offsets: 
#        150
#        13292
#        29117
#        46390
#        62472
#        76792
#        87460
#        99487
#        118440
#        131032
#        142842
#        159010
#        171245
#        185367
#        199412
#        211460
#        226392
#        242557
#        257610
#        270825
#        285240
#        299572
#        312782
#        325627
#        341295
#
# Disc length: 4719 seconds
#
# Revision: 3
# Processed by: cddbd v1.5.2PL0 Copyright (c) Steve Scherf et al.
# Submitted via: ExactAudioCopy v0.95b3
#
DISCID=61126d19
DTITLE=Various Artist - The Best Easy Album ... Ever! - Disc 2
DYEAR=2000
DGENRE=Easy Listening
TTITLE0=Nat 'King' Cole - Smile
TTITLE1=Dusty Springfield - The Look Of Love
TTITLE2=Scott Walker - Joanna
TTITLE3=Ella Fitzgerald - Ev'ry Time We Say Goodbye
TTITLE4=Dionne Warwick - Anyone Who Had A Heart
TTITLE5=Billy Fury - Wonderous Place
TTITLE6=Glen Campbell - Galveston
TTITLE7=Tom Jones - (It Looks Like) I'll Never Fall In Love Again
TTITLE8=John Barry - Midnight Cowboy
TTITLE9=Danny Williams - Moon River
TTITLE10=Johnny Mathis - Misty
TTITLE11=Shirley Bassey - For All We Know
TTITLE12=Petula Clark - Downtown
TTITLE13=Dean Martin - That's Amore
TTITLE14=Nancy and Frank Sinatra - Somethin' Stupid
TTITLE15=Peggy Lee - Fever
TTITLE16=Vic Damone - It Had To Be You
TTITLE17=Perry Como - And I Love You So
TTITLE18=Manhatten Transfer - Chanson D'Amour
TTITLE19=Mama Cass - Dream A Little Dream Of Me
TTITLE20=Andy Williams - (Where Do I Begin) Love Story
TTITLE21=Glen Campbell - Honey Come Back
TTITLE22=Matt Monro - Yesterday
TTITLE23=Nat 'King' Cole - Unforgettable
TTITLE24=Julie London - Cry Me A River
EXTD=
EXTT0=
EXTT1=
EXTT2=
EXTT3=
EXTT4=
EXTT5=
EXTT6=
EXTT7=
EXTT8=
EXTT9=
EXTT10=
EXTT11=
EXTT12=
EXTT13=
EXTT14=
EXTT15=
EXTT16=
EXTT17=
EXTT18=
EXTT19=
EXTT20=
EXTT21=
EXTT22=
EXTT23=
EXTT24=
PLAYORDER=
